<?xml version="1.0" encoding="iso-8859-1"?>
<!-- Uploaded to: SVG Repo, www.svgrepo.com, Generator: SVG Repo Mixer Tools -->
<svg version="1.1" id="Layer_1" xmlns="http://www.w3.org/2000/svg" xmlns:xlink="http://www.w3.org/1999/xlink" 
	 viewBox="0 0 469.333 469.333" xml:space="preserve">
<path style="fill:#FFFFFF;" d="M405.333,458.667H64c-11.787,0-21.333-9.547-21.333-21.333V170.667h384v266.667
	C426.667,449.12,417.12,458.667,405.333,458.667z"/>
<path style="fill:#231F20;" d="M405.333,469.333H64c-17.643,0-32-14.357-32-32V170.667C32,164.768,36.779,160,42.667,160h384
	c5.888,0,10.667,4.768,10.667,10.667v266.667C437.333,454.976,422.976,469.333,405.333,469.333z M53.333,181.333v256
	C53.333,443.221,58.123,448,64,448h341.333c5.877,0,10.667-4.779,10.667-10.667v-256H53.333z"/>
<rect x="181.333" y="234.667" style="fill:#F5B945;" width="106.667" height="224"/>
<path style="fill:#D94452;" d="M437.333,170.667H32c-11.787,0-21.333-9.547-21.333-21.333V42.667
	c0-11.787,9.547-21.333,21.333-21.333h405.333c11.787,0,21.333,9.547,21.333,21.333v106.667
	C458.667,161.12,449.12,170.667,437.333,170.667z"/>
<g>
	<rect x="181.333" y="320" style="fill:#FFFFFF;" width="106.667" height="42.667"/>
	<rect x="10.667" y="64" style="fill:#FFFFFF;" width="448" height="64"/>
</g>
<path style="fill:#231F20;" d="M458.667,138.667h-448C4.779,138.667,0,133.899,0,128V64c0-5.899,4.779-10.667,10.667-10.667h448
	c5.888,0,10.667,4.768,10.667,10.667v64C469.333,133.899,464.555,138.667,458.667,138.667z M21.333,117.333H448V74.667H21.333
	V117.333z"/>
<circle style="fill:#F5B945;" cx="234.667" cy="96" r="85.333"/>
<circle cx="277.333" cy="96" r="10.667"/>
<circle cx="234.667" cy="96" r="10.667"/>
<circle cx="192" cy="96" r="10.667"/>
<g>
	<rect x="42.667" y="234.667" style="fill:#F5B945;" width="96" height="170.667"/>
	<rect x="330.667" y="234.667" style="fill:#F5B945;" width="96" height="170.667"/>
</g>
<path d="M437.333,10.667H278.443C265.301,3.893,250.443,0,234.667,0s-30.635,3.893-43.776,10.667H32c-17.643,0-32,14.357-32,32V64
	v64v21.333c0,17.643,14.357,32,32,32v53.333v170.667v32c0,17.643,14.357,32,32,32h341.333c17.643,0,32-14.357,32-32v-32V234.667
	v-53.333c17.643,0,32-14.357,32-32V128V64V42.667C469.333,25.024,454.976,10.667,437.333,10.667z M448,42.667v10.667H320.533
	C316.651,45.557,311.765,38.4,306.016,32h131.317C443.211,32,448,36.779,448,42.667z M448,117.333H328.192
	c1.568-6.869,2.475-13.995,2.475-21.333c0-7.339-0.907-14.464-2.475-21.333H448V117.333z M309.333,96
	c0,41.163-33.493,74.667-74.667,74.667S160,137.163,160,96s33.493-74.667,74.667-74.667S309.333,54.837,309.333,96z
	 M141.141,117.333H21.333V74.667h119.808c-1.568,6.869-2.475,13.995-2.475,21.333C138.667,103.339,139.573,110.464,141.141,117.333z
	 M32,32h131.317c-5.749,6.4-10.645,13.557-14.517,21.333H21.333V42.667C21.333,36.779,26.123,32,32,32z M21.333,149.333v-10.667
	H148.8c3.883,7.776,8.768,14.933,14.517,21.333H42.667H32C26.123,160,21.333,155.221,21.333,149.333z M53.333,245.333H128v149.333
	H53.333V245.333z M277.333,352H192v-21.333h85.333V352z M277.333,309.333H192v-64h85.333V309.333z M192,448v-74.667h85.333V448H192z
	 M416,394.667h-74.667V245.333H416V394.667z M416,224h-85.333c-5.888,0-10.667,4.768-10.667,10.667v170.667
	c0,5.899,4.779,10.667,10.667,10.667H416v21.333c0,5.888-4.789,10.667-10.667,10.667H298.667v-85.333V320v-85.333
	c0-5.899-4.779-10.667-10.667-10.667H181.333c-5.888,0-10.667,4.768-10.667,10.667V320v42.667V448H64
	c-5.877,0-10.667-4.779-10.667-10.667V416h85.333c5.888,0,10.667-4.768,10.667-10.667V234.667c0-5.899-4.779-10.667-10.667-10.667
	H53.333v-42.667h128h9.557c13.141,6.773,28,10.667,43.776,10.667s30.635-3.893,43.776-10.667H416V224z M437.333,160h-10.667H306.016
	c5.749-6.4,10.645-13.557,14.517-21.333H448v10.667C448,155.221,443.211,160,437.333,160z"/>
</svg>